<svg id="visual" viewBox="0 0 1000 464" width="1000" height="464" xmlns="http://www.w3.org/2000/svg" xmlns:xlink="http://www.w3.org/1999/xlink" version="1.1"><path d="M0 355L16.7 353.7C33.3 352.3 66.7 349.7 100 350C133.3 350.3 166.7 353.7 200 356.8C233.3 360 266.7 363 300 362.5C333.3 362 366.7 358 400 358.7C433.3 359.3 466.7 364.7 500 364C533.3 363.3 566.7 356.7 600 351.8C633.3 347 666.7 344 700 349.2C733.3 354.3 766.7 367.7 800 373.7C833.3 379.7 866.7 378.3 900 378.7C933.3 379 966.7 381 983.3 382L1000 383L1000 465L983.3 465C966.7 465 933.3 465 900 465C866.7 465 833.3 465 800 465C766.7 465 733.3 465 700 465C666.7 465 633.3 465 600 465C566.7 465 533.3 465 500 465C466.7 465 433.3 465 400 465C366.7 465 333.3 465 300 465C266.7 465 233.3 465 200 465C166.7 465 133.3 465 100 465C66.7 465 33.3 465 16.7 465L0 465Z" fill="#ff6f61"></path><path d="M0 371L16.7 369.7C33.3 368.3 66.7 365.7 100 364.8C133.3 364 166.7 365 200 369C233.3 373 266.7 380 300 381C333.3 382 366.7 377 400 380.2C433.3 383.3 466.7 394.7 500 399.7C533.3 404.7 566.7 403.3 600 397C633.3 390.7 666.7 379.3 700 377.5C733.3 375.7 766.7 383.3 800 388.8C833.3 394.3 866.7 397.7 900 399.7C933.3 401.7 966.7 402.3 983.3 402.7L1000 403L1000 465L983.3 465C966.7 465 933.3 465 900 465C866.7 465 833.3 465 800 465C766.7 465 733.3 465 700 465C666.7 465 633.3 465 600 465C566.7 465 533.3 465 500 465C466.7 465 433.3 465 400 465C366.7 465 333.3 465 300 465C266.7 465 233.3 465 200 465C166.7 465 133.3 465 100 465C66.7 465 33.3 465 16.7 465L0 465Z" fill="#f45666"></path><path d="M0 394L16.7 392.7C33.3 391.3 66.7 388.7 100 388.8C133.3 389 166.7 392 200 392.8C233.3 393.7 266.7 392.3 300 396.3C333.3 400.3 366.7 409.7 400 409C433.3 408.3 466.7 397.7 500 392.7C533.3 387.7 566.7 388.3 600 388.7C633.3 389 666.7 389 700 394.5C733.3 400 766.7 411 800 413C833.3 415 866.7 408 900 405.8C933.3 403.7 966.7 406.3 983.3 407.7L1000 409L1000 465L983.3 465C966.7 465 933.3 465 900 465C866.7 465 833.3 465 800 465C766.7 465 733.3 465 700 465C666.7 465 633.3 465 600 465C566.7 465 533.3 465 500 465C466.7 465 433.3 465 400 465C366.7 465 333.3 465 300 465C266.7 465 233.3 465 200 465C166.7 465 133.3 465 100 465C66.7 465 33.3 465 16.7 465L0 465Z" fill="#e63d6c"></path><path d="M0 430L16.7 427.2C33.3 424.3 66.7 418.7 100 415.5C133.3 412.3 166.7 411.7 200 415.3C233.3 419 266.7 427 300 426C333.3 425 366.7 415 400 413.5C433.3 412 466.7 419 500 423C533.3 427 566.7 428 600 428.8C633.3 429.7 666.7 430.3 700 429.2C733.3 428 766.7 425 800 421.2C833.3 417.3 866.7 412.7 900 411.7C933.3 410.7 966.7 413.3 983.3 414.7L1000 416L1000 465L983.3 465C966.7 465 933.3 465 900 465C866.7 465 833.3 465 800 465C766.7 465 733.3 465 700 465C666.7 465 633.3 465 600 465C566.7 465 533.3 465 500 465C466.7 465 433.3 465 400 465C366.7 465 333.3 465 300 465C266.7 465 233.3 465 200 465C166.7 465 133.3 465 100 465C66.7 465 33.3 465 16.7 465L0 465Z" fill="#d42274"></path><path d="M0 443L16.7 443.8C33.3 444.7 66.7 446.3 100 445.2C133.3 444 166.7 440 200 436.7C233.3 433.3 266.7 430.7 300 431.8C333.3 433 366.7 438 400 439C433.3 440 466.7 437 500 438C533.3 439 566.7 444 600 445.2C633.3 446.3 666.7 443.7 700 441.2C733.3 438.7 766.7 436.3 800 437.8C833.3 439.3 866.7 444.7 900 447.7C933.3 450.7 966.7 451.3 983.3 451.7L1000 452L1000 465L983.3 465C966.7 465 933.3 465 900 465C866.7 465 833.3 465 800 465C766.7 465 733.3 465 700 465C666.7 465 633.3 465 600 465C566.7 465 533.3 465 500 465C466.7 465 433.3 465 400 465C366.7 465 333.3 465 300 465C266.7 465 233.3 465 200 465C166.7 465 133.3 465 100 465C66.7 465 33.3 465 16.7 465L0 465Z" fill="#be007c"></path></svg>